<?xml version="1.0" standalone="no"?><!DOCTYPE svg PUBLIC "-//W3C//DTD SVG 1.1//EN" "http://www.w3.org/Graphics/SVG/1.1/DTD/svg11.dtd"><svg t="1560327368757" class="icon" style="" viewBox="0 0 1024 1024" version="1.1" xmlns="http://www.w3.org/2000/svg" p-id="3095" xmlns:xlink="http://www.w3.org/1999/xlink" width="200" height="200"><defs><style type="text/css"></style></defs><path d="M546.909091 603.066182a34.909091 34.909091 0 0 1-69.818182 0V325.818182a34.909091 34.909091 0 0 1 69.818182 0v277.248zM512 744.727273c-19.269818 0-34.909091-13.591273-34.909091-30.347637 0-16.779636 15.639273-30.370909 34.909091-30.370909s34.909091 13.591273 34.909091 30.370909c0 16.756364-15.639273 30.347636-34.909091 30.347637z m0-721.454546C242.082909 23.272727 23.272727 242.082909 23.272727 512s218.810182 488.727273 488.727273 488.727273 488.727273-218.810182 488.727273-488.727273S781.917091 23.272727 512 23.272727z" fill="#f4ea2a" p-id="3096"></path></svg>